<svg xmlns="http://www.w3.org/2000/svg" width="512" height="512" viewBox="0 0 511.741 511.741"><g xmlns="http://www.w3.org/2000/svg"><path d="M240.708 285.414h30.326a7.5 7.5 0 000-15h-30.326a7.5 7.5 0 000 15zM221.618 94.044a7.502 7.502 0 00-10.574.832l-77.888 91.192a7.5 7.5 0 0011.407 9.742l77.888-91.192a7.502 7.502 0 00-.833-10.574zM133.875 148.519a7.473 7.473 0 004.98 1.895 7.48 7.48 0 005.608-2.517l21.053-23.685a7.5 7.5 0 00-.623-10.588 7.5 7.5 0 00-10.588.623l-21.053 23.685a7.5 7.5 0 00.623 10.587zM441.607 418.738a15.373 15.373 0 00-14.708-10.767H173.163a7.5 7.5 0 000 15H426.9c.188 0 .353.121.409.299l23.109 72.913a.385.385 0 01-.063.383c-.128.175-.27.175-.346.175H61.732c-.076 0-.217 0-.346-.175a.385.385 0 01-.063-.383l23.109-72.913a.427.427 0 01.409-.299h54.467a7.5 7.5 0 000-15H84.842a15.372 15.372 0 00-14.708 10.767l-23.109 72.913c-1.503 4.741-.68 9.762 2.258 13.775s7.476 6.315 12.449 6.315h388.276c4.974 0 9.511-2.302 12.449-6.315s3.761-9.034 2.258-13.775z" fill="#6ea2cb" data-original="#000000"/><path d="M453.843 0H57.898C41.36 0 27.905 13.455 27.905 29.993v254.015c0 16.538 13.455 29.993 29.993 29.993h147.267c-.515 15.068-1.995 40.069-5.224 54.087h-32.282a7.5 7.5 0 000 15h176.425a7.5 7.5 0 000-15h-32.282c-3.229-14.018-4.709-39.019-5.224-54.087h147.267c16.538 0 29.993-13.455 29.993-29.993V29.993C483.836 13.455 470.381 0 453.843 0zM215.255 368.088c3.309-16.954 4.506-41.798 4.914-54.087h71.402c.408 12.289 1.605 37.133 4.914 54.087zm253.581-84.08c0 8.267-6.726 14.993-14.993 14.993H57.898c-8.267 0-14.993-6.726-14.993-14.993v-27.181h425.932v27.181zm0-42.181h-19.702V131.121a7.5 7.5 0 00-15 0v110.706H77.607V50.842c0-1.093.889-1.982 1.982-1.982h352.563c1.093 0 1.982.889 1.982 1.982v45.962a7.5 7.5 0 0015 0V50.842c0-9.364-7.618-16.982-16.982-16.982H79.589c-9.364 0-16.982 7.618-16.982 16.982v190.985H42.905V29.993C42.905 21.726 49.631 15 57.898 15h395.945c8.267 0 14.993 6.726 14.993 14.993zM139.309 438.935h-10.177a7.5 7.5 0 000 15h10.177a7.5 7.5 0 000-15zM169.84 453.935h10.177a7.5 7.5 0 000-15H169.84a7.5 7.5 0 000 15zM210.548 453.935h10.177a7.5 7.5 0 000-15h-10.177a7.5 7.5 0 000 15zM251.257 453.935h10.177a7.5 7.5 0 000-15h-10.177a7.5 7.5 0 000 15zM291.965 453.935h10.177a7.5 7.5 0 000-15h-10.177a7.5 7.5 0 000 15zM332.674 453.935h10.177a7.5 7.5 0 000-15h-10.177a7.5 7.5 0 000 15zM372.433 453.935h10.177a7.5 7.5 0 000-15h-10.177a7.5 7.5 0 000 15zM139.309 465.778h-10.177a7.5 7.5 0 000 15h10.177a7.5 7.5 0 000-15zM169.84 480.778h10.177a7.5 7.5 0 000-15H169.84a7.5 7.5 0 000 15zM210.548 480.778h10.177a7.5 7.5 0 000-15h-10.177a7.5 7.5 0 000 15zM251.257 480.778h10.177a7.5 7.5 0 000-15h-10.177a7.5 7.5 0 000 15zM291.965 480.778h10.177a7.5 7.5 0 000-15h-10.177a7.5 7.5 0 000 15zM332.674 480.778h10.177a7.5 7.5 0 000-15h-10.177a7.5 7.5 0 000 15zM372.433 480.778h10.177a7.5 7.5 0 000-15h-10.177a7.5 7.5 0 000 15z" fill="#6ea2cb" data-original="#000000"/></g></svg>