<svg xmlns="http://www.w3.org/2000/svg" width="512" height="512" viewBox="0 0 24 24"><path xmlns="http://www.w3.org/2000/svg" d="M5.563 7.75H2.438c-.616 0-1.116.5-1.116 1.116V19.58c0 .37.3.67.67.67H6.01c.37 0 .67-.3.67-.67V8.866A1.119 1.119 0 005.563 7.75z" fill="#86b1d3" data-original="#90caf9"/><path xmlns="http://www.w3.org/2000/svg" d="M13.504 4.267h-3.007c-.592 0-1.074.482-1.074 1.074v13.748c0 .356.289.644.644.644h3.867a.644.644 0 00.644-.644V5.341c0-.593-.482-1.074-1.074-1.074z" fill="#86b1d3" data-original="#64b5f6"/><path xmlns="http://www.w3.org/2000/svg" d="M21.458 10.917h-2.917c-.575 0-1.042.467-1.042 1.042v7.5c0 .345.28.625.625.625h3.75c.345 0 .625-.28.625-.625v-7.5a1.041 1.041 0 00-1.041-1.042z" fill="#86b1d3" data-original="#2196f3"/><path xmlns="http://www.w3.org/2000/svg" d="M23.25 21H.75a.75.75 0 010-1.5h22.5a.75.75 0 010 1.5z" fill="#1c1c1c" data-original="#000000"/><path xmlns="http://www.w3.org/2000/svg" d="M6.25 21h-4.5a.75.75 0 01-.75-.75v-12C1 7.561 1.561 7 2.25 7h3.5C6.439 7 7 7.561 7 8.25v12a.75.75 0 01-.75.75zM2.5 19.5h3v-11h-3zM14.25 21h-4.5a.75.75 0 01-.75-.75v-16C9 3.561 9.561 3 10.25 3h3.5c.689 0 1.25.561 1.25 1.25v16a.75.75 0 01-.75.75zm-3.75-1.5h3v-15h-3zM22.25 21h-4.5a.75.75 0 01-.75-.75v-9c0-.689.561-1.25 1.25-1.25h3.5c.689 0 1.25.561 1.25 1.25v9a.75.75 0 01-.75.75zm-3.75-1.5h3v-8h-3z" fill="#1c1c1c" data-original="#000000"/></svg>